<?xml version="1.0" encoding="utf-8"?>
<?xml-stylesheet type="text/xsl" href="rss1.xsl"?>
<rss version="2.0" xmlns:atom="http://www.w3.org/2005/Atom" xmlns:content="http://purl.org/rss/1.0/modules/content/" xmlns:dc="http://purl.org/dc/elements/1.1/" xmlns:media="http://search.yahoo.com/mrss/">
<channel>
 <title>Getty</title>
 <link>http://www.gettyimg.com/</link>
 <atom:link href="http://www.gettyimg.com/" rel="self" type="application/rss+xml" />

 
                <item>
                <title><![CDATA[【HD Live Performances】WEB-DL - Gaab - Guias e Ondas 2024 1080p WEB-DL AAC2.0 x264]]></title>
                <link><![CDATA[https://sharemania.us/threads/gaab-guias-e-ondas-2024-1080p-web-dl-aac2-0-x264.243166/]]></link>
                <description><![CDATA[<article>
<blockquote class="messageText SelectQuoteContainer ugc baseHtml">
<img src="https://i.ibb.co/xg3hWgr/423.png" class="bbCodeImage LbImage" alt="[​IMG]" data-url="https://i.ibb.co/xg3hWgr/423.png" style=""><br>
<img src="https://i.ibb.co/drNykZX/3453.png" class="bbCodeImage LbImage" alt="[​IMG]" data-url="https://i.ibb.co/drNykZX/3453.png" style=""><br>
<div class="ToggleTriggerAnchor bbCodeSpoilerContainer">
<button type="button" class="button bbCodeSpoilerButton ToggleTrigger Tooltip JsOnly" data-target="> .SpoilerTarget"><span>Spoiler: <span class="SpoilerTitle">MediaInfo</span></span></button>
<div class="SpoilerTarget bbCodeSpoilerText">
<div class="bbCodeBlock bbCodeCode">
<div class="type">Code:</div>
<pre>General
Format                                   : Matroska
Format version                           : Version 4
File size                                : 3.21 GiB
Duration                                 : 1 h 35 min
Overall bit rate                         : 4 787 kb/s
Frame rate                               : 29.970 FPS
Encoded date                             : 2024-04-27 15:50:46 UTC
Writing application                      : mkvmerge v59.0.0 ('Shining Star') 64-bit
Writing library                          : libebml v1.4.2 + libmatroska v1.6.4

Video
ID                                       : 1
Format                                   : AVC
Format/Info                              : Advanced Video Codec
Format profile                           : High@L4
Format settings                          : CABAC / 2 Ref Frames
Format settings, CABAC                   : Yes
Format settings, Reference frames        : 2 frames
Codec ID                                 : V_MPEG4/ISO/AVC
Duration                                 : 1 h 35 min
Bit rate                                 : 4 660 kb/s
Width                                    : 1 920 pixels
Height                                   : 1 080 pixels
Display aspect ratio                     : 16:9
Frame rate mode                          : Constant
Frame rate                               : 29.970 (29970/1000) FPS
Color space                              : YUV
Chroma subsampling                       : 4:2:0
Bit depth                                : 8 bits
Scan type                                : Progressive
Bits/(Pixel*Frame)                       : 0.075
Stream size                              : 3.12 GiB (97%)
Writing library                          : x264 core 148
Encoding settings                        : cabac=1 / ref=2 / deblock=1:0:0 / analyse=0x3:0x113 / me=hex / subme=4 / psy=1 / psy_rd=1.00:0.00 / mixed_ref=0 / me_range=16 / chroma_me=1 / trellis=1 / 8x8dct=1 / cqm=0 / deadzone=21,11 / fast_pskip=1 / chroma_qp_offset=0 / threads=24 / lookahead_threads=6 / sliced_threads=0 / nr=0 / decimate=1 / interlaced=0 / bluray_compat=0 / constrained_intra=0 / bframes=1 / b_pyramid=0 / b_adapt=1 / b_bias=0 / direct=1 / weightb=1 / open_gop=0 / weightp=1 / keyint=30 / keyint_min=16 / scenecut=0 / intra_refresh=0 / rc=2pass / mbtree=0 / bitrate=4660 / ratetol=1.0 / qcomp=0.60 / qpmin=0 / qpmax=69 / qpstep=4 / cplxblur=20.0 / qblur=0.5 / ip_ratio=1.40 / pb_ratio=1.30 / aq=1:1.00
Default                                  : Yes
Forced                                   : No

Audio
ID                                       : 2
Format                                   : AAC LC
Format/Info                              : Advanced Audio Codec Low Complexity
Codec ID                                 : A_AAC-2
Duration                                 : 1 h 35 min
Bit rate                                 : 128 kb/s
Channel(s)                               : 2 channels
Channel layout                           : L R
Sampling rate                            : 44.1 kHz
Frame rate                               : 43.066 FPS (1024 SPF)
Compression mode                         : Lossy
Stream size                              : 87.8 MiB (3%)
Title                                    : Brazilian Portuguese
Language                                 : Portuguese (BR)
Default                                  : Yes
Forced                                   : No
</pre>
</div></div>
</div>
<div class="bbCodeBlock bbCodeVfcHH HiddenContent">
<div class="attribution type">Hidden Content:</div>
<blockquote>You must reply before you can see the hidden data contained here.</blockquote>
</div>
<div class="messageTextEndMarker">&nbsp;</div>
</blockquote>
</article>]]></description>
                <author><![CDATA[itunesboy]]></author>
                </item>

                
                <item>
                <title><![CDATA[【Albums (lossless)】FLAC - Ricky Martin (1999, Full CD-DA Rip)]]></title>
                <link><![CDATA[https://sharemania.us/threads/ricky-martin-1999-full-cd-da-rip.243167/]]></link>
                <description><![CDATA[<article>
<blockquote class="messageText SelectQuoteContainer ugc baseHtml">
<div style="text-align: center"><img src="https://m.media-amazon.com/images/I/816LaZvA54L.jpg" class="bbCodeImage LbImage" alt="[​IMG]" data-url="https://m.media-amazon.com/images/I/816LaZvA54L.jpg" style=""> <br>
<img src="https://tg-image.com/file/41513284bff059e902276.jpg" class="bbCodeImage LbImage" alt="[​IMG]" data-url="https://tg-image.com/file/41513284bff059e902276.jpg" style=""> <br>
<br>
<b>Ricky Martin - Ricky Martin (Full CD-DA RIP)<br>
<br>
<b>Genre: Latin<br>
CD Country of Origin: USA<br>
Label: Sony Entertainment Mexico on behalf of C2 Records and Colombia Records<br>
Catalog Number: CK69891<br>
Format: FLAC<br>
Language: English<br>
Year: 1999<br>
<br>
More information about the CD here:<br>
<a href="https://www.discogs.com/release/443980-Ricky-Martin-Ricky-Martin" target="_blank" class="externalLink" rel="nofollow">https://www.discogs.com/release/443980-Ricky-Martin-Ricky-Martin</a><br>
<br>
Tracklist:<br>
1. Livin’ La Vida Loca<br>
2. Spanish Eyes<br>
3. She’s All I Ever Had<br>
4. Shake Your Bon-Bon<br>
5. Be Careful (Cuidado Con Mi Corazón)<br>
6. I Am Made Of You</b><br>
7. Love You For A Day<br>
8. Private Emotion<br>
9. The Cup Of Life (Spanglish Radio Edit)<br>
10. You Stay With Me<br>
11. Livin’ La Vida Loca (Spanish Version)<br>
12. I Count The Minutes<br>
13. Bella (She’s All I Ever Had)<br>
14. María (Spanglish Radio Edit)<br>
</b><br>
my first CD rip, enjoy ;)<br>
also includes second partition of the CD<br>
<br>
Download/Descarga:<br>
<div class="bbCodeBlock bbCodeVfcHH HiddenContent">
<div class="attribution type">Hidden Content:</div>
<blockquote>You must reply before you can see the hidden data contained here.</blockquote>
</div></div>
<div class="messageTextEndMarker">&nbsp;</div>
</blockquote>
</article>]]></description>
                <author><![CDATA[UnaTortaDeAsada]]></author>
                </item>

                </channel></rss>